<?xml version="1.0" standalone="no"?>
<!DOCTYPE svg PUBLIC "-//W3C//DTD SVG 20010904//EN"
 "http://www.w3.org/TR/2001/REC-SVG-20010904/DTD/svg10.dtd">
<svg version="1.0" xmlns="http://www.w3.org/2000/svg"
 width="512.000000pt" height="512.000000pt" viewBox="0 0 512.000000 512.000000"
 preserveAspectRatio="xMidYMid meet">

<g transform="translate(0.000000,512.000000) scale(0.100000,-0.100000)"
fill="#000000" stroke="none">
<path d="M29 5091 l-29 -29 0 -776 0 -775 24 -28 24 -28 344 -3 343 -3 196
-194 c184 -184 197 -195 233 -195 26 0 44 7 61 25 25 24 25 27 25 195 l0 170
89 0 90 0 5 -52 c8 -67 46 -681 46 -729 l0 -36 -67 -5 c-115 -8 -206 -70 -255
-173 -23 -49 -28 -73 -28 -136 0 -215 137 -410 341 -484 35 -12 66 -29 70 -36
4 -8 16 -50 28 -94 47 -175 165 -364 302 -486 l69 -62 0 -122 c0 -160 -13
-200 -95 -282 -53 -53 -71 -64 -133 -83 -75 -23 -102 -46 -102 -86 0 -19 -12
-25 -99 -46 l-99 -25 -11 23 c-18 40 -54 41 -206 2 -180 -46 -238 -68 -328
-128 -118 -77 -254 -229 -273 -307 -9 -33 13 -78 42 -92 36 -16 3812 -16 3848
0 29 14 51 59 42 92 -19 78 -155 230 -274 308 -101 66 -140 79 -535 179 -203
52 -361 97 -382 110 -53 33 -121 115 -139 167 -11 33 -16 83 -16 169 l0 122
60 52 c160 139 287 360 334 580 4 20 16 28 64 42 200 59 352 269 352 488 0 66
-4 86 -30 138 -53 104 -138 162 -254 170 l-69 5 6 103 c5 93 4 105 -14 128
-11 14 -27 26 -35 26 -11 0 -14 17 -14 78 0 96 7 120 33 124 45 7 57 43 64
206 l6 152 94 0 93 0 0 -170 c0 -168 0 -171 25 -195 17 -18 35 -25 61 -25 36
0 49 11 233 195 l196 194 343 3 344 3 24 28 24 28 0 775 0 776 -29 29 -29 29
-1052 0 -1052 0 -29 -29 -29 -29 0 -456 0 -456 -340 0 -340 0 0 179 c0 99 -3
187 -6 196 -7 18 -55 45 -79 45 -9 0 -27 -11 -40 -25 -25 -24 -25 -26 -25
-205 l0 -180 -82 0 c-179 -1 -306 -39 -405 -125 -99 -84 -163 -227 -163 -361
l0 -74 -129 0 c-123 0 -131 -1 -158 -24 -27 -24 -28 -27 -31 -146 l-4 -122
-148 146 -148 146 -326 0 -326 0 0 685 0 685 960 0 960 0 0 -80 c0 -67 3 -83
20 -100 31 -31 72 -30 108 3 21 19 22 29 22 145 0 123 0 124 -29 153 l-29 29
-1052 0 -1052 0 -29 -29z m4941 -806 l0 -685 -327 0 -326 0 -149 -147 -148
-147 0 116 c0 111 -1 118 -26 147 l-26 31 -151 0 -152 0 -27 49 c-21 39 -38
54 -81 76 -55 26 -55 27 -66 87 -6 33 -23 83 -39 112 -49 86 -178 168 -324
205 l-73 19 -3 411 -2 411 960 0 960 0 0 -685z m-1827 -1125 c12 -316 75 -504
244 -728 l78 -104 -12 -206 c-7 -114 -20 -247 -28 -295 -59 -338 -322 -616
-660 -698 -123 -30 -286 -30 -408 -1 -339 83 -599 355 -662 692 -8 47 -21 180
-28 297 l-12 211 78 104 c153 204 223 395 242 664 l7 92 96 12 c54 6 300 38
547 70 248 32 464 58 481 59 l31 1 6 -170z m-1652 -682 c7 -15 32 -498 26
-498 -21 0 -94 46 -131 84 -62 62 -98 142 -103 229 -4 58 -1 79 15 107 26 47
84 80 145 80 26 0 48 -1 48 -2z m2273 -21 c59 -33 78 -77 73 -162 -5 -86 -40
-166 -101 -229 -43 -44 -123 -93 -134 -82 -6 6 15 423 24 469 5 25 9 27 52 27
30 0 61 -8 86 -23z m-1560 -1439 c245 -90 508 -86 749 13 38 16 71 29 72 29 2
0 5 -46 7 -102 3 -91 8 -111 37 -175 19 -40 42 -80 52 -89 26 -24 24 -35 -13
-71 -89 -83 -225 -148 -377 -178 -112 -23 -303 -16 -411 15 -107 30 -228 92
-291 149 -47 43 -52 51 -42 68 81 120 102 181 103 297 0 80 2 87 18 81 9 -4
53 -20 96 -37z"/>
<path d="M3959 4681 l-29 -29 0 -232 0 -231 25 -24 c29 -30 74 -32 106 -6 24
19 24 21 27 255 l3 237 -30 29 c-37 38 -65 38 -102 1z"/>
<path d="M3961 3993 c-11 -10 -24 -32 -27 -50 -5 -26 -1 -37 19 -57 65 -64
164 3 123 83 -24 45 -76 55 -115 24z"/>
<path d="M2591 2394 c-19 -24 -21 -40 -21 -144 0 -141 -9 -159 -83 -167 -77
-9 -111 -71 -68 -124 16 -20 28 -24 78 -23 70 0 128 27 171 79 42 52 52 96 52
232 0 107 -2 123 -21 147 -15 19 -30 26 -54 26 -24 0 -39 -7 -54 -26z"/>
<path d="M1988 1794 c-53 -28 -47 -88 20 -219 24 -46 62 -96 112 -146 97 -98
205 -153 346 -177 87 -15 102 -15 191 0 140 24 245 78 343 177 104 104 183
259 166 325 -14 56 -16 56 -608 56 -461 -1 -547 -3 -570 -16z"/>
<path d="M1055 4701 c-95 -25 -172 -107 -190 -204 -12 -62 25 -117 79 -117 29
0 64 40 71 82 10 55 43 88 90 88 49 0 74 -15 91 -56 21 -49 9 -76 -56 -133
-63 -55 -95 -110 -105 -183 -7 -44 -5 -50 23 -78 33 -33 48 -36 85 -19 27 12
47 47 47 82 1 33 20 61 69 98 64 48 96 116 96 199 0 73 -18 119 -67 169 -61
62 -157 92 -233 72z"/>
<path d="M1072 4003 c-7 -3 -19 -18 -28 -35 -13 -25 -13 -35 -3 -59 32 -79
143 -59 143 26 0 57 -55 91 -112 68z"/>
</g>
</svg>
